<?xml version="1.0" encoding="UTF-8" standalone="no"?>
<!DOCTYPE svg PUBLIC "-//W3C//DTD SVG 1.1//EN"
 "http://www.w3.org/Graphics/SVG/1.1/DTD/svg11.dtd">
<!-- Generated by graphviz version 2.40.1 (20161225.0304)
 -->
<!-- Title: dependencies Pages: 1 -->
<svg width="739pt" height="284pt"
 viewBox="0.00 0.00 739.00 284.00" xmlns="http://www.w3.org/2000/svg" xmlns:xlink="http://www.w3.org/1999/xlink">
<g id="graph0" class="graph" transform="scale(1 1) rotate(0) translate(4 280)">
<title>dependencies</title>
<polygon fill="#ffffff" stroke="transparent" points="-4,4 -4,-280 735,-280 735,4 -4,4"/>
<text text-anchor="start" x="344.5091" y="-42.4" font-family="sans-serif" font-weight="bold" font-size="14.00" fill="#000000">Legend</text>
<polygon fill="#ffffb3" stroke="transparent" points="131.5,-10 131.5,-30 151.5,-30 151.5,-10 131.5,-10"/>
<text text-anchor="start" x="155.129" y="-15.4" font-family="sans-serif" font-size="14.00" fill="#000000"> &#160;Declarations</text>
<polygon fill="#8dd3c7" stroke="transparent" points="244.5,-10 244.5,-30 264.5,-30 264.5,-10 244.5,-10"/>
<text text-anchor="start" x="268.2251" y="-15.4" font-family="sans-serif" font-size="14.00" fill="#000000"> &#160;Module</text>
<polygon fill="#80b1d3" stroke="transparent" points="330.5,-10 330.5,-30 350.5,-30 350.5,-10 330.5,-10"/>
<text text-anchor="start" x="354.2812" y="-15.4" font-family="sans-serif" font-size="14.00" fill="#000000"> &#160;Bootstrap</text>
<polygon fill="#fdb462" stroke="transparent" points="427.5,-10 427.5,-30 447.5,-30 447.5,-10 427.5,-10"/>
<text text-anchor="start" x="451.1732" y="-15.4" font-family="sans-serif" font-size="14.00" fill="#000000"> &#160;Providers</text>
<polygon fill="#fb8072" stroke="transparent" points="523.5,-10 523.5,-30 543.5,-30 543.5,-10 523.5,-10"/>
<text text-anchor="start" x="547.2258" y="-15.4" font-family="sans-serif" font-size="14.00" fill="#000000"> &#160;Exports</text>
<g id="clust1" class="cluster">
<title>cluster_PickListModule</title>
<polygon fill="none" stroke="#000000" stroke-dasharray="1,5" points="8,-70 8,-268 723,-268 723,-70 8,-70"/>
</g>
<g id="clust2" class="cluster">
<title>cluster_PickListModule_declarations</title>
<polygon fill="none" stroke="#000000" points="575,-78 575,-130 715,-130 715,-78 575,-78"/>
</g>
<g id="clust4" class="cluster">
<title>cluster_PickListModule_imports</title>
<polygon fill="none" stroke="#000000" points="196,-78 196,-130 567,-130 567,-78 196,-78"/>
</g>
<g id="clust5" class="cluster">
<title>cluster_PickListModule_exports</title>
<polygon fill="none" stroke="#000000" points="309,-208 309,-260 451,-260 451,-208 309,-208"/>
</g>
<g id="clust7" class="cluster">
<title>cluster_PickListModule_providers</title>
<polygon fill="none" stroke="#000000" points="16,-78 16,-130 188,-130 188,-78 16,-78"/>
</g>
<!-- PicklistComponent -->
<g id="node1" class="node">
<title>PicklistComponent</title>
<polygon fill="#ffffb3" stroke="#000000" points="706.8371,-122 583.1629,-122 583.1629,-86 706.8371,-86 706.8371,-122"/>
<text text-anchor="middle" x="645" y="-99.8" font-family="Times,serif" font-size="14.00" fill="#000000">PicklistComponent</text>
</g>
<!-- PickListModule -->
<g id="node2" class="node">
<title>PickListModule</title>
<polygon fill="#8dd3c7" stroke="#000000" points="433.2162,-187 430.2162,-191 409.2162,-191 406.2162,-187 326.7838,-187 326.7838,-151 433.2162,-151 433.2162,-187"/>
<text text-anchor="middle" x="380" y="-164.8" font-family="Times,serif" font-size="14.00" fill="#000000">PickListModule</text>
</g>
<!-- PicklistComponent&#45;&gt;PickListModule -->
<g id="edge1" class="edge">
<title>PicklistComponent&#45;&gt;PickListModule</title>
<path fill="none" stroke="#000000" d="M645,-122.2843C645,-143.3211 645,-175 645,-175 645,-175 443.3079,-175 443.3079,-175"/>
<polygon fill="#000000" stroke="#000000" points="443.308,-171.5001 433.3079,-175 443.3079,-178.5001 443.308,-171.5001"/>
</g>
<!-- PicklistComponent  -->
<g id="node6" class="node">
<title>PicklistComponent </title>
<polygon fill="#fb8072" stroke="#000000" points="443.3367,-252 316.6633,-252 316.6633,-216 443.3367,-216 443.3367,-252"/>
<text text-anchor="middle" x="380" y="-229.8" font-family="Times,serif" font-size="14.00" fill="#000000">PicklistComponent </text>
</g>
<!-- PickListModule&#45;&gt;PicklistComponent  -->
<g id="edge5" class="edge">
<title>PickListModule&#45;&gt;PicklistComponent </title>
<path fill="none" stroke="#000000" stroke-dasharray="5,2" d="M380,-187.1061C380,-187.1061 380,-205.991 380,-205.991"/>
<polygon fill="#000000" stroke="#000000" points="376.5001,-205.9909 380,-215.991 383.5001,-205.991 376.5001,-205.9909"/>
</g>
<!-- CommonModule -->
<g id="node3" class="node">
<title>CommonModule</title>
<polygon fill="#8dd3c7" stroke="#000000" points="558.6681,-122 555.6681,-126 534.6681,-126 531.6681,-122 447.3319,-122 447.3319,-86 558.6681,-86 558.6681,-122"/>
<text text-anchor="middle" x="503" y="-99.8" font-family="Times,serif" font-size="14.00" fill="#000000">CommonModule</text>
</g>
<!-- CommonModule&#45;&gt;PickListModule -->
<g id="edge2" class="edge">
<title>CommonModule&#45;&gt;PickListModule</title>
<path fill="none" stroke="#000000" d="M503,-122.0225C503,-139.3734 503,-163 503,-163 503,-163 443.2342,-163 443.2342,-163"/>
<polygon fill="#000000" stroke="#000000" points="443.2342,-159.5001 433.2342,-163 443.2342,-166.5001 443.2342,-159.5001"/>
</g>
<!-- ButtonModule -->
<g id="node4" class="node">
<title>ButtonModule</title>
<polygon fill="#8dd3c7" stroke="#000000" points="428.6682,-122 425.6682,-126 404.6682,-126 401.6682,-122 331.3318,-122 331.3318,-86 428.6682,-86 428.6682,-122"/>
<text text-anchor="middle" x="380" y="-99.8" font-family="Times,serif" font-size="14.00" fill="#000000">ButtonModule</text>
</g>
<!-- ButtonModule&#45;&gt;PickListModule -->
<g id="edge3" class="edge">
<title>ButtonModule&#45;&gt;PickListModule</title>
<path fill="none" stroke="#000000" d="M380,-122.1061C380,-122.1061 380,-140.991 380,-140.991"/>
<polygon fill="#000000" stroke="#000000" points="376.5001,-140.9909 380,-150.991 383.5001,-140.991 376.5001,-140.9909"/>
</g>
<!-- OrderlistModule -->
<g id="node5" class="node">
<title>OrderlistModule</title>
<polygon fill="#8dd3c7" stroke="#000000" points="313.809,-122 310.809,-126 289.809,-126 286.809,-122 204.191,-122 204.191,-86 313.809,-86 313.809,-122"/>
<text text-anchor="middle" x="259" y="-99.8" font-family="Times,serif" font-size="14.00" fill="#000000">OrderlistModule</text>
</g>
<!-- OrderlistModule&#45;&gt;PickListModule -->
<g id="edge4" class="edge">
<title>OrderlistModule&#45;&gt;PickListModule</title>
<path fill="none" stroke="#000000" d="M259,-122.0225C259,-139.3734 259,-163 259,-163 259,-163 316.5754,-163 316.5754,-163"/>
<polygon fill="#000000" stroke="#000000" points="316.5755,-166.5001 326.5754,-163 316.5754,-159.5001 316.5755,-166.5001"/>
</g>
<!-- CommonHandler -->
<g id="node7" class="node">
<title>CommonHandler</title>
<ellipse fill="#fdb462" stroke="#000000" cx="102" cy="-104" rx="78.1733" ry="18"/>
<text text-anchor="middle" x="102" y="-99.8" font-family="Times,serif" font-size="14.00" fill="#000000">CommonHandler</text>
</g>
<!-- CommonHandler&#45;&gt;PickListModule -->
<g id="edge6" class="edge">
<title>CommonHandler&#45;&gt;PickListModule</title>
<path fill="none" stroke="#000000" d="M102,-122.2843C102,-143.3211 102,-175 102,-175 102,-175 316.7277,-175 316.7277,-175"/>
<polygon fill="#000000" stroke="#000000" points="316.7278,-178.5001 326.7277,-175 316.7277,-171.5001 316.7278,-178.5001"/>
</g>
</g>
</svg>
