<?xml version="1.0" encoding="UTF-8" standalone="no"?>
<!DOCTYPE svg PUBLIC "-//W3C//DTD SVG 1.1//EN"
 "http://www.w3.org/Graphics/SVG/1.1/DTD/svg11.dtd">
<!-- Generated by graphviz version 2.40.1 (20161225.0304)
 -->
<!-- Title: dependencies Pages: 1 -->
<svg width="1193pt" height="284pt"
 viewBox="0.00 0.00 1193.00 284.00" xmlns="http://www.w3.org/2000/svg" xmlns:xlink="http://www.w3.org/1999/xlink">
<g id="graph0" class="graph" transform="scale(1 1) rotate(0) translate(4 280)">
<title>dependencies</title>
<polygon fill="#ffffff" stroke="transparent" points="-4,4 -4,-280 1189,-280 1189,4 -4,4"/>
<text text-anchor="start" x="571.5091" y="-42.4" font-family="sans-serif" font-weight="bold" font-size="14.00" fill="#000000">Legend</text>
<polygon fill="#ffffb3" stroke="transparent" points="358.5,-10 358.5,-30 378.5,-30 378.5,-10 358.5,-10"/>
<text text-anchor="start" x="382.129" y="-15.4" font-family="sans-serif" font-size="14.00" fill="#000000"> &#160;Declarations</text>
<polygon fill="#8dd3c7" stroke="transparent" points="471.5,-10 471.5,-30 491.5,-30 491.5,-10 471.5,-10"/>
<text text-anchor="start" x="495.2251" y="-15.4" font-family="sans-serif" font-size="14.00" fill="#000000"> &#160;Module</text>
<polygon fill="#80b1d3" stroke="transparent" points="557.5,-10 557.5,-30 577.5,-30 577.5,-10 557.5,-10"/>
<text text-anchor="start" x="581.2812" y="-15.4" font-family="sans-serif" font-size="14.00" fill="#000000"> &#160;Bootstrap</text>
<polygon fill="#fdb462" stroke="transparent" points="654.5,-10 654.5,-30 674.5,-30 674.5,-10 654.5,-10"/>
<text text-anchor="start" x="678.1732" y="-15.4" font-family="sans-serif" font-size="14.00" fill="#000000"> &#160;Providers</text>
<polygon fill="#fb8072" stroke="transparent" points="750.5,-10 750.5,-30 770.5,-30 770.5,-10 750.5,-10"/>
<text text-anchor="start" x="774.2258" y="-15.4" font-family="sans-serif" font-size="14.00" fill="#000000"> &#160;Exports</text>
<g id="clust1" class="cluster">
<title>cluster_AppModule</title>
<polygon fill="none" stroke="#000000" stroke-dasharray="1,5" points="8,-70 8,-268 1177,-268 1177,-70 8,-70"/>
</g>
<g id="clust2" class="cluster">
<title>cluster_AppModule_declarations</title>
<polygon fill="none" stroke="#000000" points="906,-78 906,-130 1169,-130 1169,-78 906,-78"/>
</g>
<g id="clust5" class="cluster">
<title>cluster_AppModule_imports</title>
<polygon fill="none" stroke="#000000" points="16,-78 16,-130 898,-130 898,-78 16,-78"/>
</g>
<g id="clust7" class="cluster">
<title>cluster_AppModule_bootstrap</title>
<polygon fill="none" stroke="#000000" points="501,-208 501,-260 625,-260 625,-208 501,-208"/>
</g>
<!-- AppComponent -->
<g id="node1" class="node">
<title>AppComponent</title>
<polygon fill="#ffffb3" stroke="#000000" points="1160.9399,-122 1055.0601,-122 1055.0601,-86 1160.9399,-86 1160.9399,-122"/>
<text text-anchor="middle" x="1108" y="-99.8" font-family="Times,serif" font-size="14.00" fill="#000000">AppComponent</text>
</g>
<!-- AppModule -->
<g id="node3" class="node">
<title>AppModule</title>
<polygon fill="#8dd3c7" stroke="#000000" points="604.6571,-187 601.6571,-191 580.6571,-191 577.6571,-187 521.3429,-187 521.3429,-151 604.6571,-151 604.6571,-187"/>
<text text-anchor="middle" x="563" y="-164.8" font-family="Times,serif" font-size="14.00" fill="#000000">AppModule</text>
</g>
<!-- AppComponent&#45;&gt;AppModule -->
<g id="edge1" class="edge">
<title>AppComponent&#45;&gt;AppModule</title>
<path fill="none" stroke="#000000" d="M1108,-122.0109C1108,-144.4852 1108,-180 1108,-180 1108,-180 614.8603,-180 614.8603,-180"/>
<polygon fill="#000000" stroke="#000000" points="614.8603,-176.5001 604.8603,-180 614.8603,-183.5001 614.8603,-176.5001"/>
</g>
<!-- PicklistComponent -->
<g id="node2" class="node">
<title>PicklistComponent</title>
<polygon fill="#ffffb3" stroke="#000000" points="1037.8371,-122 914.1629,-122 914.1629,-86 1037.8371,-86 1037.8371,-122"/>
<text text-anchor="middle" x="976" y="-99.8" font-family="Times,serif" font-size="14.00" fill="#000000">PicklistComponent</text>
</g>
<!-- PicklistComponent&#45;&gt;AppModule -->
<g id="edge2" class="edge">
<title>PicklistComponent&#45;&gt;AppModule</title>
<path fill="none" stroke="#000000" d="M976,-122.1289C976,-142.5724 976,-173 976,-173 976,-173 614.8735,-173 614.8735,-173"/>
<polygon fill="#000000" stroke="#000000" points="614.8735,-169.5001 604.8735,-173 614.8734,-176.5001 614.8735,-169.5001"/>
</g>
<!-- AppComponent  -->
<g id="node11" class="node">
<title>AppComponent </title>
<polygon fill="#80b1d3" stroke="#000000" points="617.439,-252 508.561,-252 508.561,-216 617.439,-216 617.439,-252"/>
<text text-anchor="middle" x="563" y="-229.8" font-family="Times,serif" font-size="14.00" fill="#000000">AppComponent </text>
</g>
<!-- AppModule&#45;&gt;AppComponent  -->
<g id="edge10" class="edge">
<title>AppModule&#45;&gt;AppComponent </title>
<path fill="none" stroke="#000000" stroke-dasharray="1,5" d="M563,-187.1061C563,-187.1061 563,-205.991 563,-205.991"/>
<polygon fill="#000000" stroke="#000000" points="559.5001,-205.9909 563,-215.991 566.5001,-205.991 559.5001,-205.9909"/>
</g>
<!-- CommonModule -->
<g id="node4" class="node">
<title>CommonModule</title>
<polygon fill="#8dd3c7" stroke="#000000" points="889.6681,-122 886.6681,-126 865.6681,-126 862.6681,-122 778.3319,-122 778.3319,-86 889.6681,-86 889.6681,-122"/>
<text text-anchor="middle" x="834" y="-99.8" font-family="Times,serif" font-size="14.00" fill="#000000">CommonModule</text>
</g>
<!-- CommonModule&#45;&gt;AppModule -->
<g id="edge3" class="edge">
<title>CommonModule&#45;&gt;AppModule</title>
<path fill="none" stroke="#000000" d="M834,-122.2667C834,-140.5552 834,-166 834,-166 834,-166 614.7498,-166 614.7498,-166"/>
<polygon fill="#000000" stroke="#000000" points="614.7499,-162.5001 604.7498,-166 614.7498,-169.5001 614.7499,-162.5001"/>
</g>
<!-- BrowserModule -->
<g id="node5" class="node">
<title>BrowserModule</title>
<polygon fill="#8dd3c7" stroke="#000000" points="760.4734,-122 757.4734,-126 736.4734,-126 733.4734,-122 653.5266,-122 653.5266,-86 760.4734,-86 760.4734,-122"/>
<text text-anchor="middle" x="707" y="-99.8" font-family="Times,serif" font-size="14.00" fill="#000000">BrowserModule</text>
</g>
<!-- BrowserModule&#45;&gt;AppModule -->
<g id="edge4" class="edge">
<title>BrowserModule&#45;&gt;AppModule</title>
<path fill="none" stroke="#000000" d="M707,-122.0091C707,-138.0494 707,-159 707,-159 707,-159 615.0379,-159 615.0379,-159"/>
<polygon fill="#000000" stroke="#000000" points="615.0379,-155.5001 605.0379,-159 615.0378,-162.5001 615.0379,-155.5001"/>
</g>
<!-- ConfirmDialogModule -->
<g id="node6" class="node">
<title>ConfirmDialogModule</title>
<polygon fill="#8dd3c7" stroke="#000000" points="635.5912,-122 632.5912,-126 611.5912,-126 608.5912,-122 490.4088,-122 490.4088,-86 635.5912,-86 635.5912,-122"/>
<text text-anchor="middle" x="563" y="-99.8" font-family="Times,serif" font-size="14.00" fill="#000000">ConfirmDialogModule</text>
</g>
<!-- ConfirmDialogModule&#45;&gt;AppModule -->
<g id="edge5" class="edge">
<title>ConfirmDialogModule&#45;&gt;AppModule</title>
<path fill="none" stroke="#000000" d="M563,-122.1061C563,-122.1061 563,-140.991 563,-140.991"/>
<polygon fill="#000000" stroke="#000000" points="559.5001,-140.9909 563,-150.991 566.5001,-140.991 559.5001,-140.9909"/>
</g>
<!-- SharedModule -->
<g id="node7" class="node">
<title>SharedModule</title>
<polygon fill="#8dd3c7" stroke="#000000" points="472.4231,-122 469.4231,-126 448.4231,-126 445.4231,-122 373.5769,-122 373.5769,-86 472.4231,-86 472.4231,-122"/>
<text text-anchor="middle" x="423" y="-99.8" font-family="Times,serif" font-size="14.00" fill="#000000">SharedModule</text>
</g>
<!-- SharedModule&#45;&gt;AppModule -->
<g id="edge6" class="edge">
<title>SharedModule&#45;&gt;AppModule</title>
<path fill="none" stroke="#000000" d="M423,-122.0091C423,-138.0494 423,-159 423,-159 423,-159 510.9954,-159 510.9954,-159"/>
<polygon fill="#000000" stroke="#000000" points="510.9954,-162.5001 520.9954,-159 510.9953,-155.5001 510.9954,-162.5001"/>
</g>
<!-- ButtonModule -->
<g id="node8" class="node">
<title>ButtonModule</title>
<polygon fill="#8dd3c7" stroke="#000000" points="355.6682,-122 352.6682,-126 331.6682,-126 328.6682,-122 258.3318,-122 258.3318,-86 355.6682,-86 355.6682,-122"/>
<text text-anchor="middle" x="307" y="-99.8" font-family="Times,serif" font-size="14.00" fill="#000000">ButtonModule</text>
</g>
<!-- ButtonModule&#45;&gt;AppModule -->
<g id="edge7" class="edge">
<title>ButtonModule&#45;&gt;AppModule</title>
<path fill="none" stroke="#000000" d="M307,-122.2667C307,-140.5552 307,-166 307,-166 307,-166 511.2994,-166 511.2994,-166"/>
<polygon fill="#000000" stroke="#000000" points="511.2995,-169.5001 521.2994,-166 511.2994,-162.5001 511.2995,-169.5001"/>
</g>
<!-- AlertModule -->
<g id="node9" class="node">
<title>AlertModule</title>
<polygon fill="#8dd3c7" stroke="#000000" points="240.3134,-122 237.3134,-126 216.3134,-126 213.3134,-122 151.6866,-122 151.6866,-86 240.3134,-86 240.3134,-122"/>
<text text-anchor="middle" x="196" y="-99.8" font-family="Times,serif" font-size="14.00" fill="#000000">AlertModule</text>
</g>
<!-- AlertModule&#45;&gt;AppModule -->
<g id="edge8" class="edge">
<title>AlertModule&#45;&gt;AppModule</title>
<path fill="none" stroke="#000000" d="M196,-122.1289C196,-142.5724 196,-173 196,-173 196,-173 511.2577,-173 511.2577,-173"/>
<polygon fill="#000000" stroke="#000000" points="511.2578,-176.5001 521.2577,-173 511.2577,-169.5001 511.2578,-176.5001"/>
</g>
<!-- OrderlistModule -->
<g id="node10" class="node">
<title>OrderlistModule</title>
<polygon fill="#8dd3c7" stroke="#000000" points="133.809,-122 130.809,-126 109.809,-126 106.809,-122 24.191,-122 24.191,-86 133.809,-86 133.809,-122"/>
<text text-anchor="middle" x="79" y="-99.8" font-family="Times,serif" font-size="14.00" fill="#000000">OrderlistModule</text>
</g>
<!-- OrderlistModule&#45;&gt;AppModule -->
<g id="edge9" class="edge">
<title>OrderlistModule&#45;&gt;AppModule</title>
<path fill="none" stroke="#000000" d="M79,-122.0109C79,-144.4852 79,-180 79,-180 79,-180 511.3155,-180 511.3155,-180"/>
<polygon fill="#000000" stroke="#000000" points="511.3156,-183.5001 521.3155,-180 511.3155,-176.5001 511.3156,-183.5001"/>
</g>
</g>
</svg>
