<?xml version="1.0" encoding="UTF-8" standalone="no"?>
<!DOCTYPE svg PUBLIC "-//W3C//DTD SVG 1.1//EN"
 "http://www.w3.org/Graphics/SVG/1.1/DTD/svg11.dtd">
<!-- Generated by graphviz version 2.40.1 (20161225.0304)
 -->
<!-- Title: dependencies Pages: 1 -->
<svg width="504pt" height="284pt"
 viewBox="0.00 0.00 504.00 284.00" xmlns="http://www.w3.org/2000/svg" xmlns:xlink="http://www.w3.org/1999/xlink">
<g id="graph0" class="graph" transform="scale(1 1) rotate(0) translate(4 280)">
<title>dependencies</title>
<polygon fill="#ffffff" stroke="transparent" points="-4,4 -4,-280 500,-280 500,4 -4,4"/>
<text text-anchor="start" x="227.0091" y="-42.4" font-family="sans-serif" font-weight="bold" font-size="14.00" fill="#000000">Legend</text>
<polygon fill="#ffffb3" stroke="transparent" points="14,-10 14,-30 34,-30 34,-10 14,-10"/>
<text text-anchor="start" x="37.629" y="-15.4" font-family="sans-serif" font-size="14.00" fill="#000000"> &#160;Declarations</text>
<polygon fill="#8dd3c7" stroke="transparent" points="127,-10 127,-30 147,-30 147,-10 127,-10"/>
<text text-anchor="start" x="150.7251" y="-15.4" font-family="sans-serif" font-size="14.00" fill="#000000"> &#160;Module</text>
<polygon fill="#80b1d3" stroke="transparent" points="213,-10 213,-30 233,-30 233,-10 213,-10"/>
<text text-anchor="start" x="236.7812" y="-15.4" font-family="sans-serif" font-size="14.00" fill="#000000"> &#160;Bootstrap</text>
<polygon fill="#fdb462" stroke="transparent" points="310,-10 310,-30 330,-30 330,-10 310,-10"/>
<text text-anchor="start" x="333.6732" y="-15.4" font-family="sans-serif" font-size="14.00" fill="#000000"> &#160;Providers</text>
<polygon fill="#fb8072" stroke="transparent" points="406,-10 406,-30 426,-30 426,-10 406,-10"/>
<text text-anchor="start" x="429.7258" y="-15.4" font-family="sans-serif" font-size="14.00" fill="#000000"> &#160;Exports</text>
<g id="clust1" class="cluster">
<title>cluster_ConfirmDialogModule</title>
<polygon fill="none" stroke="#000000" stroke-dasharray="1,5" points="55,-70 55,-268 441,-268 441,-70 55,-70"/>
</g>
<g id="clust2" class="cluster">
<title>cluster_ConfirmDialogModule_declarations</title>
<polygon fill="none" stroke="#000000" points="315,-78 315,-130 433,-130 433,-78 315,-78"/>
</g>
<g id="clust4" class="cluster">
<title>cluster_ConfirmDialogModule_imports</title>
<polygon fill="none" stroke="#000000" points="63,-78 63,-130 307,-130 307,-78 63,-78"/>
</g>
<g id="clust5" class="cluster">
<title>cluster_ConfirmDialogModule_exports</title>
<polygon fill="none" stroke="#000000" points="182,-208 182,-260 304,-260 304,-208 182,-208"/>
</g>
<!-- ConfirmDialog -->
<g id="node1" class="node">
<title>ConfirmDialog</title>
<polygon fill="#ffffb3" stroke="#000000" points="424.5424,-122 323.4576,-122 323.4576,-86 424.5424,-86 424.5424,-122"/>
<text text-anchor="middle" x="374" y="-99.8" font-family="Times,serif" font-size="14.00" fill="#000000">ConfirmDialog</text>
</g>
<!-- ConfirmDialogModule -->
<g id="node2" class="node">
<title>ConfirmDialogModule</title>
<polygon fill="#8dd3c7" stroke="#000000" points="315.5912,-187 312.5912,-191 291.5912,-191 288.5912,-187 170.4088,-187 170.4088,-151 315.5912,-151 315.5912,-187"/>
<text text-anchor="middle" x="243" y="-164.8" font-family="Times,serif" font-size="14.00" fill="#000000">ConfirmDialogModule</text>
</g>
<!-- ConfirmDialog&#45;&gt;ConfirmDialogModule -->
<g id="edge1" class="edge">
<title>ConfirmDialog&#45;&gt;ConfirmDialogModule</title>
<path fill="none" stroke="#000000" d="M323.3626,-104C314.0444,-104 307.1897,-104 307.1897,-104 307.1897,-104 307.1897,-140.8939 307.1897,-140.8939"/>
<polygon fill="#000000" stroke="#000000" points="303.6898,-140.8938 307.1897,-150.8939 310.6898,-140.8939 303.6898,-140.8938"/>
</g>
<!-- ConfirmDialog  -->
<g id="node5" class="node">
<title>ConfirmDialog </title>
<polygon fill="#fb8072" stroke="#000000" points="295.5414,-252 190.4586,-252 190.4586,-216 295.5414,-216 295.5414,-252"/>
<text text-anchor="middle" x="243" y="-229.8" font-family="Times,serif" font-size="14.00" fill="#000000">ConfirmDialog </text>
</g>
<!-- ConfirmDialogModule&#45;&gt;ConfirmDialog  -->
<g id="edge4" class="edge">
<title>ConfirmDialogModule&#45;&gt;ConfirmDialog </title>
<path fill="none" stroke="#000000" stroke-dasharray="5,2" d="M243,-187.1061C243,-187.1061 243,-205.991 243,-205.991"/>
<polygon fill="#000000" stroke="#000000" points="239.5001,-205.9909 243,-215.991 246.5001,-205.991 239.5001,-205.9909"/>
</g>
<!-- CommonModule -->
<g id="node3" class="node">
<title>CommonModule</title>
<polygon fill="#8dd3c7" stroke="#000000" points="298.6681,-122 295.6681,-126 274.6681,-126 271.6681,-122 187.3319,-122 187.3319,-86 298.6681,-86 298.6681,-122"/>
<text text-anchor="middle" x="243" y="-99.8" font-family="Times,serif" font-size="14.00" fill="#000000">CommonModule</text>
</g>
<!-- CommonModule&#45;&gt;ConfirmDialogModule -->
<g id="edge2" class="edge">
<title>CommonModule&#45;&gt;ConfirmDialogModule</title>
<path fill="none" stroke="#000000" d="M243,-122.1061C243,-122.1061 243,-140.991 243,-140.991"/>
<polygon fill="#000000" stroke="#000000" points="239.5001,-140.9909 243,-150.991 246.5001,-140.991 239.5001,-140.9909"/>
</g>
<!-- ButtonModule -->
<g id="node4" class="node">
<title>ButtonModule</title>
<polygon fill="#8dd3c7" stroke="#000000" points="168.6682,-122 165.6682,-126 144.6682,-126 141.6682,-122 71.3318,-122 71.3318,-86 168.6682,-86 168.6682,-122"/>
<text text-anchor="middle" x="120" y="-99.8" font-family="Times,serif" font-size="14.00" fill="#000000">ButtonModule</text>
</g>
<!-- ButtonModule&#45;&gt;ConfirmDialogModule -->
<g id="edge3" class="edge">
<title>ButtonModule&#45;&gt;ConfirmDialogModule</title>
<path fill="none" stroke="#000000" d="M168.8339,-104C174.782,-104 178.8103,-104 178.8103,-104 178.8103,-104 178.8103,-140.8939 178.8103,-140.8939"/>
<polygon fill="#000000" stroke="#000000" points="175.3104,-140.8938 178.8103,-150.8939 182.3104,-140.8939 175.3104,-140.8938"/>
</g>
</g>
</svg>
