<?xml version="1.0" encoding="UTF-8" standalone="no"?>
<!DOCTYPE svg PUBLIC "-//W3C//DTD SVG 1.1//EN"
 "http://www.w3.org/Graphics/SVG/1.1/DTD/svg11.dtd">
<!-- Generated by graphviz version 2.40.1 (20161225.0304)
 -->
<!-- Title: dependencies Pages: 1 -->
<svg width="1505pt" height="507pt"
 viewBox="0.00 0.00 1505.00 507.00" xmlns="http://www.w3.org/2000/svg" xmlns:xlink="http://www.w3.org/1999/xlink">
<g id="graph0" class="graph" transform="scale(1 1) rotate(0) translate(4 503)">
<title>dependencies</title>
<polygon fill="#ffffff" stroke="transparent" points="-4,4 -4,-503 1501,-503 1501,4 -4,4"/>
<text text-anchor="start" x="727.5091" y="-42.4" font-family="sans-serif" font-weight="bold" font-size="14.00" fill="#000000">Legend</text>
<polygon fill="#ffffb3" stroke="transparent" points="514.5,-10 514.5,-30 534.5,-30 534.5,-10 514.5,-10"/>
<text text-anchor="start" x="538.129" y="-15.4" font-family="sans-serif" font-size="14.00" fill="#000000"> &#160;Declarations</text>
<polygon fill="#8dd3c7" stroke="transparent" points="627.5,-10 627.5,-30 647.5,-30 647.5,-10 627.5,-10"/>
<text text-anchor="start" x="651.2251" y="-15.4" font-family="sans-serif" font-size="14.00" fill="#000000"> &#160;Module</text>
<polygon fill="#80b1d3" stroke="transparent" points="713.5,-10 713.5,-30 733.5,-30 733.5,-10 713.5,-10"/>
<text text-anchor="start" x="737.2812" y="-15.4" font-family="sans-serif" font-size="14.00" fill="#000000"> &#160;Bootstrap</text>
<polygon fill="#fdb462" stroke="transparent" points="810.5,-10 810.5,-30 830.5,-30 830.5,-10 810.5,-10"/>
<text text-anchor="start" x="834.1732" y="-15.4" font-family="sans-serif" font-size="14.00" fill="#000000"> &#160;Providers</text>
<polygon fill="#fb8072" stroke="transparent" points="906.5,-10 906.5,-30 926.5,-30 926.5,-10 906.5,-10"/>
<text text-anchor="start" x="930.2258" y="-15.4" font-family="sans-serif" font-size="14.00" fill="#000000"> &#160;Exports</text>
<g id="clust1" class="cluster">
<title>cluster_AlertModule</title>
<polygon fill="none" stroke="#000000" stroke-dasharray="1,5" points="170,-70 170,-347 314,-347 314,-70 170,-70"/>
</g>
<g id="clust3" class="cluster">
<title>cluster_AlertModule_imports</title>
<polygon fill="none" stroke="#000000" points="178,-78 178,-195 306,-195 306,-78 178,-78"/>
</g>
<g id="clust4" class="cluster">
<title>cluster_AlertModule_exports</title>
<polygon fill="none" stroke="#000000" points="178,-287 178,-339 280,-339 280,-287 178,-287"/>
</g>
<g id="clust7" class="cluster">
<title>cluster_AppModule</title>
<polygon fill="none" stroke="#000000" stroke-dasharray="1,5" points="776,-203 776,-491 1323,-491 1323,-203 776,-203"/>
</g>
<g id="clust9" class="cluster">
<title>cluster_AppModule_imports</title>
<polygon fill="none" stroke="#000000" points="784,-211 784,-339 1315,-339 1315,-211 784,-211"/>
</g>
<g id="clust11" class="cluster">
<title>cluster_AppModule_bootstrap</title>
<polygon fill="none" stroke="#000000" points="858,-431 858,-483 982,-483 982,-431 858,-431"/>
</g>
<g id="clust13" class="cluster">
<title>cluster_ButtonModule</title>
<polygon fill="none" stroke="#000000" stroke-dasharray="1,5" points="8,-203 8,-271 162,-271 162,-203 8,-203"/>
</g>
<g id="clust16" class="cluster">
<title>cluster_ButtonModule_exports</title>
<polygon fill="none" stroke="#000000" points="16,-211 16,-263 154,-263 154,-211 16,-211"/>
</g>
<g id="clust19" class="cluster">
<title>cluster_ConfirmDialogModule</title>
<polygon fill="none" stroke="#000000" stroke-dasharray="1,5" points="356,-279 356,-347 494,-347 494,-279 356,-279"/>
</g>
<g id="clust22" class="cluster">
<title>cluster_ConfirmDialogModule_exports</title>
<polygon fill="none" stroke="#000000" points="364,-287 364,-339 486,-339 486,-287 364,-287"/>
</g>
<g id="clust25" class="cluster">
<title>cluster_OrderlistModule</title>
<polygon fill="none" stroke="#000000" stroke-dasharray="1,5" points="602,-279 602,-347 768,-347 768,-279 602,-279"/>
</g>
<g id="clust28" class="cluster">
<title>cluster_OrderlistModule_exports</title>
<polygon fill="none" stroke="#000000" points="610,-287 610,-339 760,-339 760,-287 610,-287"/>
</g>
<g id="clust31" class="cluster">
<title>cluster_PickListModule</title>
<polygon fill="none" stroke="#000000" stroke-dasharray="1,5" points="1331,-355 1331,-423 1489,-423 1489,-355 1331,-355"/>
</g>
<g id="clust34" class="cluster">
<title>cluster_PickListModule_exports</title>
<polygon fill="none" stroke="#000000" points="1339,-363 1339,-415 1481,-415 1481,-363 1339,-363"/>
</g>
<g id="clust37" class="cluster">
<title>cluster_SharedModule</title>
<polygon fill="none" stroke="#000000" stroke-dasharray="1,5" points="502,-279 502,-347 594,-347 594,-279 502,-279"/>
</g>
<g id="clust40" class="cluster">
<title>cluster_SharedModule_exports</title>
<polygon fill="none" stroke="#000000" points="510,-287 510,-339 586,-339 586,-287 510,-287"/>
</g>
<!-- CommonModule -->
<g id="node1" class="node">
<title>CommonModule</title>
<polygon fill="#8dd3c7" stroke="#000000" points="297.6681,-122 294.6681,-126 273.6681,-126 270.6681,-122 186.3319,-122 186.3319,-86 297.6681,-86 297.6681,-122"/>
<text text-anchor="middle" x="242" y="-99.8" font-family="Times,serif" font-size="14.00" fill="#000000">CommonModule</text>
</g>
<!-- ButtonModule -->
<g id="node2" class="node">
<title>ButtonModule</title>
<polygon fill="#8dd3c7" stroke="#000000" points="297.6682,-187 294.6682,-191 273.6682,-191 270.6682,-187 200.3318,-187 200.3318,-151 297.6682,-151 297.6682,-187"/>
<text text-anchor="middle" x="249" y="-164.8" font-family="Times,serif" font-size="14.00" fill="#000000">ButtonModule</text>
</g>
<!-- CommonModule&#45;&gt;ButtonModule -->
<g id="edge13" class="edge">
<title>CommonModule&#45;&gt;ButtonModule</title>
<path fill="none" stroke="#000000" d="M249,-122.1061C249,-122.1061 249,-140.991 249,-140.991"/>
<polygon fill="#000000" stroke="#000000" points="245.5001,-140.9909 249,-150.991 252.5001,-140.991 245.5001,-140.9909"/>
</g>
<!-- AlertModule -->
<g id="node3" class="node">
<title>AlertModule</title>
<polygon fill="#8dd3c7" stroke="#000000" points="283.3134,-255 280.3134,-259 259.3134,-259 256.3134,-255 194.6866,-255 194.6866,-219 283.3134,-219 283.3134,-255"/>
<text text-anchor="middle" x="239" y="-232.8" font-family="Times,serif" font-size="14.00" fill="#000000">AlertModule</text>
</g>
<!-- CommonModule&#45;&gt;AlertModule -->
<g id="edge1" class="edge">
<title>CommonModule&#45;&gt;AlertModule</title>
<path fill="none" stroke="#000000" d="M190.5049,-122.2142C190.5049,-158.6396 190.5049,-237 190.5049,-237 190.5049,-237 190.9184,-237 190.9184,-237"/>
<polygon fill="#000000" stroke="#000000" points="184.6397,-240.5003 194.6396,-237 184.6395,-233.5003 184.6397,-240.5003"/>
</g>
<!-- ConfirmDialogModule -->
<g id="node6" class="node">
<title>ConfirmDialogModule</title>
<polygon fill="#8dd3c7" stroke="#000000" points="937.5912,-255 934.5912,-259 913.5912,-259 910.5912,-255 792.4088,-255 792.4088,-219 937.5912,-219 937.5912,-255"/>
<text text-anchor="middle" x="865" y="-232.8" font-family="Times,serif" font-size="14.00" fill="#000000">ConfirmDialogModule</text>
</g>
<!-- CommonModule&#45;&gt;ConfirmDialogModule -->
<g id="edge15" class="edge">
<title>CommonModule&#45;&gt;ConfirmDialogModule</title>
<path fill="none" stroke="#000000" d="M297.8354,-108C450.7514,-108 865,-108 865,-108 865,-108 865,-208.7911 865,-208.7911"/>
<polygon fill="#000000" stroke="#000000" points="861.5001,-208.791 865,-218.7911 868.5001,-208.7911 861.5001,-208.791"/>
</g>
<!-- OrderlistModule -->
<g id="node8" class="node">
<title>OrderlistModule</title>
<polygon fill="#8dd3c7" stroke="#000000" points="1306.809,-255 1303.809,-259 1282.809,-259 1279.809,-255 1197.191,-255 1197.191,-219 1306.809,-219 1306.809,-255"/>
<text text-anchor="middle" x="1252" y="-232.8" font-family="Times,serif" font-size="14.00" fill="#000000">OrderlistModule</text>
</g>
<!-- CommonModule&#45;&gt;OrderlistModule -->
<g id="edge18" class="edge">
<title>CommonModule&#45;&gt;OrderlistModule</title>
<path fill="none" stroke="#000000" d="M298.0117,-94C512.5778,-94 1270.2181,-94 1270.2181,-94 1270.2181,-94 1270.2181,-208.889 1270.2181,-208.889"/>
<polygon fill="#000000" stroke="#000000" points="1266.7182,-208.8889 1270.2181,-218.889 1273.7182,-208.889 1266.7182,-208.8889"/>
</g>
<!-- PickListModule -->
<g id="node9" class="node">
<title>PickListModule</title>
<polygon fill="#8dd3c7" stroke="#000000" points="1307.2162,-331 1304.2162,-335 1283.2162,-335 1280.2162,-331 1200.7838,-331 1200.7838,-295 1307.2162,-295 1307.2162,-331"/>
<text text-anchor="middle" x="1254" y="-308.8" font-family="Times,serif" font-size="14.00" fill="#000000">PickListModule</text>
</g>
<!-- CommonModule&#45;&gt;PickListModule -->
<g id="edge21" class="edge">
<title>CommonModule&#45;&gt;PickListModule</title>
<path fill="none" stroke="#000000" d="M297.7041,-115C435.0927,-115 779.0681,-115 779.0681,-115 779.0681,-115 779.0681,-310 779.0681,-310 779.0681,-310 1190.4425,-310 1190.4425,-310"/>
<polygon fill="#000000" stroke="#000000" points="1190.4425,-313.5001 1200.4425,-310 1190.4424,-306.5001 1190.4425,-313.5001"/>
</g>
<!-- AppModule -->
<g id="node10" class="node">
<title>AppModule</title>
<polygon fill="#8dd3c7" stroke="#000000" points="961.6571,-407 958.6571,-411 937.6571,-411 934.6571,-407 878.3429,-407 878.3429,-371 961.6571,-371 961.6571,-407"/>
<text text-anchor="middle" x="920" y="-384.8" font-family="Times,serif" font-size="14.00" fill="#000000">AppModule</text>
</g>
<!-- CommonModule&#45;&gt;AppModule -->
<g id="edge4" class="edge">
<title>CommonModule&#45;&gt;AppModule</title>
<path fill="none" stroke="#000000" d="M297.9362,-101C464.1582,-101 943.6267,-101 943.6267,-101 943.6267,-101 943.6267,-360.9843 943.6267,-360.9843"/>
<polygon fill="#000000" stroke="#000000" points="940.1268,-360.9843 943.6267,-370.9843 947.1268,-360.9843 940.1268,-360.9843"/>
</g>
<!-- ButtonModule&#45;&gt;AlertModule -->
<g id="edge2" class="edge">
<title>ButtonModule&#45;&gt;AlertModule</title>
<path fill="none" stroke="#000000" d="M241.6613,-187.2228C241.6613,-187.2228 241.6613,-208.7269 241.6613,-208.7269"/>
<polygon fill="#000000" stroke="#000000" points="238.1614,-208.7269 241.6613,-218.7269 245.1614,-208.727 238.1614,-208.7269"/>
</g>
<!-- ButtonModule&#45;&gt;ConfirmDialogModule -->
<g id="edge16" class="edge">
<title>ButtonModule&#45;&gt;ConfirmDialogModule</title>
<path fill="none" stroke="#000000" d="M292.9413,-187.2667C292.9413,-205.5552 292.9413,-231 292.9413,-231 292.9413,-231 782.2581,-231 782.2581,-231"/>
<polygon fill="#000000" stroke="#000000" points="782.2581,-234.5001 792.2581,-231 782.258,-227.5001 782.2581,-234.5001"/>
</g>
<!-- ButtonModule&#45;&gt;OrderlistModule -->
<g id="edge19" class="edge">
<title>ButtonModule&#45;&gt;OrderlistModule</title>
<path fill="none" stroke="#000000" d="M297.8355,-163C496.5441,-163 1233.7819,-163 1233.7819,-163 1233.7819,-163 1233.7819,-208.7079 1233.7819,-208.7079"/>
<polygon fill="#000000" stroke="#000000" points="1230.282,-208.7078 1233.7819,-218.7079 1237.282,-208.7079 1230.282,-208.7078"/>
</g>
<!-- ButtonModule&#45;&gt;PickListModule -->
<g id="edge22" class="edge">
<title>ButtonModule&#45;&gt;PickListModule</title>
<path fill="none" stroke="#000000" d="M298.074,-175C427.0465,-175 765.6819,-175 765.6819,-175 765.6819,-175 765.6819,-317 765.6819,-317 765.6819,-317 1190.8118,-317 1190.8118,-317"/>
<polygon fill="#000000" stroke="#000000" points="1190.8119,-320.5001 1200.8118,-317 1190.8118,-313.5001 1190.8119,-320.5001"/>
</g>
<!-- ButtonModule&#45;&gt;AppModule -->
<g id="edge8" class="edge">
<title>ButtonModule&#45;&gt;AppModule</title>
<path fill="none" stroke="#000000" d="M288.0489,-187.2455C288.0489,-238.9967 288.0489,-383 288.0489,-383 288.0489,-383 868.0465,-383 868.0465,-383"/>
<polygon fill="#000000" stroke="#000000" points="868.0465,-386.5001 878.0465,-383 868.0465,-379.5001 868.0465,-386.5001"/>
</g>
<!-- ButtonComponent  -->
<g id="node12" class="node">
<title>ButtonComponent </title>
<polygon fill="#fb8072" stroke="#000000" points="146.4502,-255 23.5498,-255 23.5498,-219 146.4502,-219 146.4502,-255"/>
<text text-anchor="middle" x="85" y="-232.8" font-family="Times,serif" font-size="14.00" fill="#000000">ButtonComponent </text>
</g>
<!-- ButtonModule&#45;&gt;ButtonComponent  -->
<g id="edge14" class="edge">
<title>ButtonModule&#45;&gt;ButtonComponent </title>
<path fill="none" stroke="#000000" stroke-dasharray="5,2" d="M200.2386,-169C151.8959,-169 85,-169 85,-169 85,-169 85,-208.7772 85,-208.7772"/>
<polygon fill="#000000" stroke="#000000" points="81.5001,-208.7772 85,-218.7772 88.5001,-208.7773 81.5001,-208.7772"/>
</g>
<!-- AlertDialog  -->
<g id="node4" class="node">
<title>AlertDialog </title>
<polygon fill="#fb8072" stroke="#000000" points="272.3662,-331 185.6338,-331 185.6338,-295 272.3662,-295 272.3662,-331"/>
<text text-anchor="middle" x="229" y="-308.8" font-family="Times,serif" font-size="14.00" fill="#000000">AlertDialog </text>
</g>
<!-- AlertModule&#45;&gt;AlertDialog  -->
<g id="edge3" class="edge">
<title>AlertModule&#45;&gt;AlertDialog </title>
<path fill="none" stroke="#000000" stroke-dasharray="5,2" d="M233.5132,-255.0109C233.5132,-255.0109 233.5132,-284.855 233.5132,-284.855"/>
<polygon fill="#000000" stroke="#000000" points="230.0132,-284.8549 233.5132,-294.855 237.0132,-284.855 230.0132,-284.8549"/>
</g>
<!-- AlertModule&#45;&gt;AppModule -->
<g id="edge9" class="edge">
<title>AlertModule&#45;&gt;AppModule</title>
<path fill="none" stroke="#000000" d="M277.6696,-255.1246C277.6696,-296.6261 277.6696,-395 277.6696,-395 277.6696,-395 867.8549,-395 867.8549,-395"/>
<polygon fill="#000000" stroke="#000000" points="867.8549,-398.5001 877.8549,-395 867.8549,-391.5001 867.8549,-398.5001"/>
</g>
<!-- BrowserModule -->
<g id="node5" class="node">
<title>BrowserModule</title>
<polygon fill="#8dd3c7" stroke="#000000" points="1179.4734,-255 1176.4734,-259 1155.4734,-259 1152.4734,-255 1072.5266,-255 1072.5266,-219 1179.4734,-219 1179.4734,-255"/>
<text text-anchor="middle" x="1126" y="-232.8" font-family="Times,serif" font-size="14.00" fill="#000000">BrowserModule</text>
</g>
<!-- BrowserModule&#45;&gt;AppModule -->
<g id="edge5" class="edge">
<title>BrowserModule&#45;&gt;AppModule</title>
<path fill="none" stroke="#000000" d="M1126,-255.2703C1126,-295.0576 1126,-386 1126,-386 1126,-386 971.6872,-386 971.6872,-386"/>
<polygon fill="#000000" stroke="#000000" points="971.6872,-382.5001 961.6872,-386 971.6871,-389.5001 971.6872,-382.5001"/>
</g>
<!-- ConfirmDialogModule&#45;&gt;AppModule -->
<g id="edge6" class="edge">
<title>ConfirmDialogModule&#45;&gt;AppModule</title>
<path fill="none" stroke="#000000" d="M907.8587,-255.0333C907.8587,-255.0333 907.8587,-360.9902 907.8587,-360.9902"/>
<polygon fill="#000000" stroke="#000000" points="904.3588,-360.9901 907.8587,-370.9902 911.3588,-360.9902 904.3588,-360.9901"/>
</g>
<!-- ConfirmDialog  -->
<g id="node13" class="node">
<title>ConfirmDialog </title>
<polygon fill="#fb8072" stroke="#000000" points="477.5414,-331 372.4586,-331 372.4586,-295 477.5414,-295 477.5414,-331"/>
<text text-anchor="middle" x="425" y="-308.8" font-family="Times,serif" font-size="14.00" fill="#000000">ConfirmDialog </text>
</g>
<!-- ConfirmDialogModule&#45;&gt;ConfirmDialog  -->
<g id="edge17" class="edge">
<title>ConfirmDialogModule&#45;&gt;ConfirmDialog </title>
<path fill="none" stroke="#000000" stroke-dasharray="5,2" d="M792.3429,-243C667.3706,-243 425,-243 425,-243 425,-243 425,-284.9733 425,-284.9733"/>
<polygon fill="#000000" stroke="#000000" points="421.5001,-284.9732 425,-294.9733 428.5001,-284.9733 421.5001,-284.9732"/>
</g>
<!-- SharedModule -->
<g id="node7" class="node">
<title>SharedModule</title>
<polygon fill="#8dd3c7" stroke="#000000" points="1054.4231,-255 1051.4231,-259 1030.4231,-259 1027.4231,-255 955.5769,-255 955.5769,-219 1054.4231,-219 1054.4231,-255"/>
<text text-anchor="middle" x="1005" y="-232.8" font-family="Times,serif" font-size="14.00" fill="#000000">SharedModule</text>
</g>
<!-- SharedModule&#45;&gt;AppModule -->
<g id="edge7" class="edge">
<title>SharedModule&#45;&gt;AppModule</title>
<path fill="none" stroke="#000000" d="M970.2557,-255.2733C970.2557,-293.6253 970.2557,-379 970.2557,-379 970.2557,-379 969.4259,-379 969.4259,-379"/>
<polygon fill="#000000" stroke="#000000" points="971.9571,-375.5001 961.957,-379 971.957,-382.5001 971.9571,-375.5001"/>
</g>
<!-- Header  -->
<g id="node16" class="node">
<title>Header </title>
<polygon fill="#fb8072" stroke="#000000" points="577.9111,-331 518.0889,-331 518.0889,-295 577.9111,-295 577.9111,-331"/>
<text text-anchor="middle" x="548" y="-308.8" font-family="Times,serif" font-size="14.00" fill="#000000">Header </text>
</g>
<!-- SharedModule&#45;&gt;Header  -->
<g id="edge25" class="edge">
<title>SharedModule&#45;&gt;Header </title>
<path fill="none" stroke="#000000" stroke-dasharray="5,2" d="M966.042,-255.1097C966.042,-264.897 966.042,-275 966.042,-275 966.042,-275 548,-275 548,-275 548,-275 548,-284.8903 548,-284.8903"/>
<polygon fill="#000000" stroke="#000000" points="544.5001,-284.8903 548,-294.8903 551.5001,-284.8904 544.5001,-284.8903"/>
</g>
<!-- OrderlistModule&#45;&gt;PickListModule -->
<g id="edge23" class="edge">
<title>OrderlistModule&#45;&gt;PickListModule</title>
<path fill="none" stroke="#000000" d="M1253.7732,-255.0109C1253.7732,-255.0109 1253.7732,-284.855 1253.7732,-284.855"/>
<polygon fill="#000000" stroke="#000000" points="1250.2732,-284.8549 1253.7732,-294.855 1257.2732,-284.855 1250.2732,-284.8549"/>
</g>
<!-- OrderlistModule&#45;&gt;AppModule -->
<g id="edge10" class="edge">
<title>OrderlistModule&#45;&gt;AppModule</title>
<path fill="none" stroke="#000000" d="M1196.9859,-243C1193.5234,-243 1191.3927,-243 1191.3927,-243 1191.3927,-243 1191.3927,-393 1191.3927,-393 1191.3927,-393 971.8103,-393 971.8103,-393"/>
<polygon fill="#000000" stroke="#000000" points="971.8104,-389.5001 961.8103,-393 971.8103,-396.5001 971.8104,-389.5001"/>
</g>
<!-- OrderlistComponent  -->
<g id="node14" class="node">
<title>OrderlistComponent </title>
<polygon fill="#fb8072" stroke="#000000" points="752.0918,-331 617.9082,-331 617.9082,-295 752.0918,-295 752.0918,-331"/>
<text text-anchor="middle" x="685" y="-308.8" font-family="Times,serif" font-size="14.00" fill="#000000">OrderlistComponent </text>
</g>
<!-- OrderlistModule&#45;&gt;OrderlistComponent  -->
<g id="edge20" class="edge">
<title>OrderlistModule&#45;&gt;OrderlistComponent </title>
<path fill="none" stroke="#000000" stroke-dasharray="5,2" d="M1197.3393,-231C1190.2751,-231 1185.4397,-231 1185.4397,-231 1185.4397,-231 1185.4397,-303 1185.4397,-303 1185.4397,-303 762.2317,-303 762.2317,-303"/>
<polygon fill="#000000" stroke="#000000" points="762.2317,-299.5001 752.2317,-303 762.2317,-306.5001 762.2317,-299.5001"/>
</g>
<!-- PickListModule&#45;&gt;AppModule -->
<g id="edge11" class="edge">
<title>PickListModule&#45;&gt;AppModule</title>
<path fill="none" stroke="#000000" d="M1200.6481,-324C1113.3784,-324 949.7078,-324 949.7078,-324 949.7078,-324 949.7078,-360.8939 949.7078,-360.8939"/>
<polygon fill="#000000" stroke="#000000" points="946.2079,-360.8938 949.7078,-370.8939 953.2079,-360.8939 946.2079,-360.8938"/>
</g>
<!-- PicklistComponent  -->
<g id="node15" class="node">
<title>PicklistComponent </title>
<polygon fill="#fb8072" stroke="#000000" points="1473.3367,-407 1346.6633,-407 1346.6633,-371 1473.3367,-371 1473.3367,-407"/>
<text text-anchor="middle" x="1410" y="-384.8" font-family="Times,serif" font-size="14.00" fill="#000000">PicklistComponent </text>
</g>
<!-- PickListModule&#45;&gt;PicklistComponent  -->
<g id="edge24" class="edge">
<title>PickListModule&#45;&gt;PicklistComponent </title>
<path fill="none" stroke="#000000" stroke-dasharray="5,2" d="M1254,-331.0265C1254,-356.5093 1254,-400 1254,-400 1254,-400 1336.5488,-400 1336.5488,-400"/>
<polygon fill="#000000" stroke="#000000" points="1336.5489,-403.5001 1346.5488,-400 1336.5488,-396.5001 1336.5489,-403.5001"/>
</g>
<!-- AppComponent  -->
<g id="node11" class="node">
<title>AppComponent </title>
<polygon fill="#80b1d3" stroke="#000000" points="974.439,-475 865.561,-475 865.561,-439 974.439,-439 974.439,-475"/>
<text text-anchor="middle" x="920" y="-452.8" font-family="Times,serif" font-size="14.00" fill="#000000">AppComponent </text>
</g>
<!-- AppModule&#45;&gt;AppComponent  -->
<g id="edge12" class="edge">
<title>AppModule&#45;&gt;AppComponent </title>
<path fill="none" stroke="#000000" stroke-dasharray="1,5" d="M920,-407.2228C920,-407.2228 920,-428.7269 920,-428.7269"/>
<polygon fill="#000000" stroke="#000000" points="916.5001,-428.7269 920,-438.7269 923.5001,-428.727 916.5001,-428.7269"/>
</g>
</g>
</svg>
