<?xml version="1.0" encoding="UTF-8" standalone="no"?>
<!DOCTYPE svg PUBLIC "-//W3C//DTD SVG 1.1//EN"
 "http://www.w3.org/Graphics/SVG/1.1/DTD/svg11.dtd">
<!-- Generated by graphviz version 2.40.1 (20161225.0304)
 -->
<!-- Title: dependencies Pages: 1 -->
<svg width="1364pt" height="431pt"
 viewBox="0.00 0.00 1364.00 431.00" xmlns="http://www.w3.org/2000/svg" xmlns:xlink="http://www.w3.org/1999/xlink">
<g id="graph0" class="graph" transform="scale(1 1) rotate(0) translate(4 427)">
<title>dependencies</title>
<polygon fill="#ffffff" stroke="transparent" points="-4,4 -4,-427 1360,-427 1360,4 -4,4"/>
<text text-anchor="start" x="657.0091" y="-42.4" font-family="sans-serif" font-weight="bold" font-size="14.00" fill="#000000">Legend</text>
<polygon fill="#ffffb3" stroke="transparent" points="444,-10 444,-30 464,-30 464,-10 444,-10"/>
<text text-anchor="start" x="467.629" y="-15.4" font-family="sans-serif" font-size="14.00" fill="#000000"> &#160;Declarations</text>
<polygon fill="#8dd3c7" stroke="transparent" points="557,-10 557,-30 577,-30 577,-10 557,-10"/>
<text text-anchor="start" x="580.7251" y="-15.4" font-family="sans-serif" font-size="14.00" fill="#000000"> &#160;Module</text>
<polygon fill="#80b1d3" stroke="transparent" points="643,-10 643,-30 663,-30 663,-10 643,-10"/>
<text text-anchor="start" x="666.7812" y="-15.4" font-family="sans-serif" font-size="14.00" fill="#000000"> &#160;Bootstrap</text>
<polygon fill="#fdb462" stroke="transparent" points="740,-10 740,-30 760,-30 760,-10 740,-10"/>
<text text-anchor="start" x="763.6732" y="-15.4" font-family="sans-serif" font-size="14.00" fill="#000000"> &#160;Providers</text>
<polygon fill="#fb8072" stroke="transparent" points="836,-10 836,-30 856,-30 856,-10 836,-10"/>
<text text-anchor="start" x="859.7258" y="-15.4" font-family="sans-serif" font-size="14.00" fill="#000000"> &#160;Exports</text>
<g id="clust1" class="cluster">
<title>cluster_AlertModule</title>
<polygon fill="none" stroke="#000000" stroke-dasharray="1,5" points="1204,-70 1204,-347 1348,-347 1348,-70 1204,-70"/>
</g>
<g id="clust3" class="cluster">
<title>cluster_AlertModule_imports</title>
<polygon fill="none" stroke="#000000" points="1212,-78 1212,-195 1340,-195 1340,-78 1212,-78"/>
</g>
<g id="clust4" class="cluster">
<title>cluster_AlertModule_exports</title>
<polygon fill="none" stroke="#000000" points="1218,-287 1218,-339 1320,-339 1320,-287 1218,-287"/>
</g>
<g id="clust7" class="cluster">
<title>cluster_AppModule</title>
<polygon fill="none" stroke="#000000" stroke-dasharray="1,5" points="428,-203 428,-415 974,-415 974,-203 428,-203"/>
</g>
<g id="clust9" class="cluster">
<title>cluster_AppModule_imports</title>
<polygon fill="none" stroke="#000000" points="436,-211 436,-263 966,-263 966,-211 436,-211"/>
</g>
<g id="clust11" class="cluster">
<title>cluster_AppModule_bootstrap</title>
<polygon fill="none" stroke="#000000" points="842,-355 842,-407 966,-407 966,-355 842,-355"/>
</g>
<g id="clust13" class="cluster">
<title>cluster_ButtonModule</title>
<polygon fill="none" stroke="#000000" stroke-dasharray="1,5" points="1042,-203 1042,-271 1196,-271 1196,-203 1042,-203"/>
</g>
<g id="clust16" class="cluster">
<title>cluster_ButtonModule_exports</title>
<polygon fill="none" stroke="#000000" points="1050,-211 1050,-263 1188,-263 1188,-211 1050,-211"/>
</g>
<g id="clust19" class="cluster">
<title>cluster_ConfirmDialogModule</title>
<polygon fill="none" stroke="#000000" stroke-dasharray="1,5" points="8,-279 8,-347 146,-347 146,-279 8,-279"/>
</g>
<g id="clust22" class="cluster">
<title>cluster_ConfirmDialogModule_exports</title>
<polygon fill="none" stroke="#000000" points="16,-287 16,-339 138,-339 138,-287 16,-287"/>
</g>
<g id="clust25" class="cluster">
<title>cluster_OrderlistModule</title>
<polygon fill="none" stroke="#000000" stroke-dasharray="1,5" points="254,-279 254,-347 420,-347 420,-279 254,-279"/>
</g>
<g id="clust28" class="cluster">
<title>cluster_OrderlistModule_exports</title>
<polygon fill="none" stroke="#000000" points="262,-287 262,-339 412,-339 412,-287 262,-287"/>
</g>
<g id="clust31" class="cluster">
<title>cluster_SharedModule</title>
<polygon fill="none" stroke="#000000" stroke-dasharray="1,5" points="154,-279 154,-347 246,-347 246,-279 154,-279"/>
</g>
<g id="clust34" class="cluster">
<title>cluster_SharedModule_exports</title>
<polygon fill="none" stroke="#000000" points="162,-287 162,-339 238,-339 238,-287 162,-287"/>
</g>
<!-- CommonModule -->
<g id="node1" class="node">
<title>CommonModule</title>
<polygon fill="#8dd3c7" stroke="#000000" points="1331.6681,-122 1328.6681,-126 1307.6681,-126 1304.6681,-122 1220.3319,-122 1220.3319,-86 1331.6681,-86 1331.6681,-122"/>
<text text-anchor="middle" x="1276" y="-99.8" font-family="Times,serif" font-size="14.00" fill="#000000">CommonModule</text>
</g>
<!-- ButtonModule -->
<g id="node2" class="node">
<title>ButtonModule</title>
<polygon fill="#8dd3c7" stroke="#000000" points="1317.6682,-187 1314.6682,-191 1293.6682,-191 1290.6682,-187 1220.3318,-187 1220.3318,-151 1317.6682,-151 1317.6682,-187"/>
<text text-anchor="middle" x="1269" y="-164.8" font-family="Times,serif" font-size="14.00" fill="#000000">ButtonModule</text>
</g>
<!-- CommonModule&#45;&gt;ButtonModule -->
<g id="edge12" class="edge">
<title>CommonModule&#45;&gt;ButtonModule</title>
<path fill="none" stroke="#000000" d="M1269,-122.1061C1269,-122.1061 1269,-140.991 1269,-140.991"/>
<polygon fill="#000000" stroke="#000000" points="1265.5001,-140.9909 1269,-150.991 1272.5001,-140.991 1265.5001,-140.9909"/>
</g>
<!-- AlertModule -->
<g id="node3" class="node">
<title>AlertModule</title>
<polygon fill="#8dd3c7" stroke="#000000" points="1313.3134,-255 1310.3134,-259 1289.3134,-259 1286.3134,-255 1224.6866,-255 1224.6866,-219 1313.3134,-219 1313.3134,-255"/>
<text text-anchor="middle" x="1269" y="-232.8" font-family="Times,serif" font-size="14.00" fill="#000000">AlertModule</text>
</g>
<!-- CommonModule&#45;&gt;AlertModule -->
<g id="edge1" class="edge">
<title>CommonModule&#45;&gt;AlertModule</title>
<path fill="none" stroke="#000000" d="M1324.8338,-122.2142C1324.8338,-158.6396 1324.8338,-237 1324.8338,-237 1324.8338,-237 1323.265,-237 1323.265,-237"/>
<polygon fill="#000000" stroke="#000000" points="1323.265,-233.5001 1313.265,-237 1323.265,-240.5001 1323.265,-233.5001"/>
</g>
<!-- ConfirmDialogModule -->
<g id="node6" class="node">
<title>ConfirmDialogModule</title>
<polygon fill="#8dd3c7" stroke="#000000" points="589.5912,-255 586.5912,-259 565.5912,-259 562.5912,-255 444.4088,-255 444.4088,-219 589.5912,-219 589.5912,-255"/>
<text text-anchor="middle" x="517" y="-232.8" font-family="Times,serif" font-size="14.00" fill="#000000">ConfirmDialogModule</text>
</g>
<!-- CommonModule&#45;&gt;ConfirmDialogModule -->
<g id="edge14" class="edge">
<title>CommonModule&#45;&gt;ConfirmDialogModule</title>
<path fill="none" stroke="#000000" d="M1220.3033,-95C1041.3784,-95 492.8181,-95 492.8181,-95 492.8181,-95 492.8181,-208.7267 492.8181,-208.7267"/>
<polygon fill="#000000" stroke="#000000" points="489.3182,-208.7267 492.8181,-218.7267 496.3182,-208.7267 489.3182,-208.7267"/>
</g>
<!-- OrderlistModule -->
<g id="node8" class="node">
<title>OrderlistModule</title>
<polygon fill="#8dd3c7" stroke="#000000" points="833.809,-255 830.809,-259 809.809,-259 806.809,-255 724.191,-255 724.191,-219 833.809,-219 833.809,-255"/>
<text text-anchor="middle" x="779" y="-232.8" font-family="Times,serif" font-size="14.00" fill="#000000">OrderlistModule</text>
</g>
<!-- CommonModule&#45;&gt;OrderlistModule -->
<g id="edge17" class="edge">
<title>CommonModule&#45;&gt;OrderlistModule</title>
<path fill="none" stroke="#000000" d="M1219.8818,-104C1086.3486,-104 760.7819,-104 760.7819,-104 760.7819,-104 760.7819,-208.7858 760.7819,-208.7858"/>
<polygon fill="#000000" stroke="#000000" points="757.282,-208.7858 760.7819,-218.7858 764.282,-208.7858 757.282,-208.7858"/>
</g>
<!-- AppModule -->
<g id="node9" class="node">
<title>AppModule</title>
<polygon fill="#8dd3c7" stroke="#000000" points="945.6571,-331 942.6571,-335 921.6571,-335 918.6571,-331 862.3429,-331 862.3429,-295 945.6571,-295 945.6571,-331"/>
<text text-anchor="middle" x="904" y="-308.8" font-family="Times,serif" font-size="14.00" fill="#000000">AppModule</text>
</g>
<!-- CommonModule&#45;&gt;AppModule -->
<g id="edge4" class="edge">
<title>CommonModule&#45;&gt;AppModule</title>
<path fill="none" stroke="#000000" d="M1219.8573,-113C1203.7223,-113 1190.3979,-113 1190.3979,-113 1190.3979,-113 1190.3979,-304 1190.3979,-304 1190.3979,-304 955.9514,-304 955.9514,-304"/>
<polygon fill="#000000" stroke="#000000" points="955.9515,-300.5001 945.9514,-304 955.9514,-307.5001 955.9515,-300.5001"/>
</g>
<!-- ButtonModule&#45;&gt;AlertModule -->
<g id="edge2" class="edge">
<title>ButtonModule&#45;&gt;AlertModule</title>
<path fill="none" stroke="#000000" d="M1269,-187.2228C1269,-187.2228 1269,-208.7269 1269,-208.7269"/>
<polygon fill="#000000" stroke="#000000" points="1265.5001,-208.7269 1269,-218.7269 1272.5001,-208.727 1265.5001,-208.7269"/>
</g>
<!-- ButtonModule&#45;&gt;ConfirmDialogModule -->
<g id="edge15" class="edge">
<title>ButtonModule&#45;&gt;ConfirmDialogModule</title>
<path fill="none" stroke="#000000" d="M1220.1157,-159C1056.9298,-159 541.1819,-159 541.1819,-159 541.1819,-159 541.1819,-208.9092 541.1819,-208.9092"/>
<polygon fill="#000000" stroke="#000000" points="537.682,-208.9091 541.1819,-218.9092 544.682,-208.9092 537.682,-208.9091"/>
</g>
<!-- ButtonModule&#45;&gt;OrderlistModule -->
<g id="edge18" class="edge">
<title>ButtonModule&#45;&gt;OrderlistModule</title>
<path fill="none" stroke="#000000" d="M1220.288,-166C1099.7485,-166 797.2181,-166 797.2181,-166 797.2181,-166 797.2181,-208.7157 797.2181,-208.7157"/>
<polygon fill="#000000" stroke="#000000" points="793.7182,-208.7157 797.2181,-218.7157 800.7182,-208.7158 793.7182,-208.7157"/>
</g>
<!-- ButtonModule&#45;&gt;AppModule -->
<g id="edge8" class="edge">
<title>ButtonModule&#45;&gt;AppModule</title>
<path fill="none" stroke="#000000" d="M1220.1856,-173C1208.9988,-173 1200.3207,-173 1200.3207,-173 1200.3207,-173 1200.3207,-313 1200.3207,-313 1200.3207,-313 955.827,-313 955.827,-313"/>
<polygon fill="#000000" stroke="#000000" points="955.8271,-309.5001 945.827,-313 955.827,-316.5001 955.8271,-309.5001"/>
</g>
<!-- ButtonComponent  -->
<g id="node11" class="node">
<title>ButtonComponent </title>
<polygon fill="#fb8072" stroke="#000000" points="1180.4502,-255 1057.5498,-255 1057.5498,-219 1180.4502,-219 1180.4502,-255"/>
<text text-anchor="middle" x="1119" y="-232.8" font-family="Times,serif" font-size="14.00" fill="#000000">ButtonComponent </text>
</g>
<!-- ButtonModule&#45;&gt;ButtonComponent  -->
<g id="edge13" class="edge">
<title>ButtonModule&#45;&gt;ButtonComponent </title>
<path fill="none" stroke="#000000" stroke-dasharray="5,2" d="M1220.2993,-180C1176.5003,-180 1119,-180 1119,-180 1119,-180 1119,-208.9648 1119,-208.9648"/>
<polygon fill="#000000" stroke="#000000" points="1115.5001,-208.9648 1119,-218.9648 1122.5001,-208.9649 1115.5001,-208.9648"/>
</g>
<!-- AlertDialog  -->
<g id="node4" class="node">
<title>AlertDialog </title>
<polygon fill="#fb8072" stroke="#000000" points="1312.3662,-331 1225.6338,-331 1225.6338,-295 1312.3662,-295 1312.3662,-331"/>
<text text-anchor="middle" x="1269" y="-308.8" font-family="Times,serif" font-size="14.00" fill="#000000">AlertDialog </text>
</g>
<!-- AlertModule&#45;&gt;AlertDialog  -->
<g id="edge3" class="edge">
<title>AlertModule&#45;&gt;AlertDialog </title>
<path fill="none" stroke="#000000" stroke-dasharray="5,2" d="M1269,-255.0109C1269,-255.0109 1269,-284.855 1269,-284.855"/>
<polygon fill="#000000" stroke="#000000" points="1265.5001,-284.8549 1269,-294.855 1272.5001,-284.855 1265.5001,-284.8549"/>
</g>
<!-- AlertModule&#45;&gt;AppModule -->
<g id="edge9" class="edge">
<title>AlertModule&#45;&gt;AppModule</title>
<path fill="none" stroke="#000000" d="M1224.7675,-237C1216.4198,-237 1210.2434,-237 1210.2434,-237 1210.2434,-237 1210.2434,-322 1210.2434,-322 1210.2434,-322 955.9397,-322 955.9397,-322"/>
<polygon fill="#000000" stroke="#000000" points="955.9398,-318.5001 945.9397,-322 955.9397,-325.5001 955.9398,-318.5001"/>
</g>
<!-- BrowserModule -->
<g id="node5" class="node">
<title>BrowserModule</title>
<polygon fill="#8dd3c7" stroke="#000000" points="958.4734,-255 955.4734,-259 934.4734,-259 931.4734,-255 851.5266,-255 851.5266,-219 958.4734,-219 958.4734,-255"/>
<text text-anchor="middle" x="905" y="-232.8" font-family="Times,serif" font-size="14.00" fill="#000000">BrowserModule</text>
</g>
<!-- BrowserModule&#45;&gt;AppModule -->
<g id="edge5" class="edge">
<title>BrowserModule&#45;&gt;AppModule</title>
<path fill="none" stroke="#000000" d="M904,-255.0109C904,-255.0109 904,-284.855 904,-284.855"/>
<polygon fill="#000000" stroke="#000000" points="900.5001,-284.8549 904,-294.855 907.5001,-284.855 900.5001,-284.8549"/>
</g>
<!-- ConfirmDialogModule&#45;&gt;AppModule -->
<g id="edge6" class="edge">
<title>ConfirmDialogModule&#45;&gt;AppModule</title>
<path fill="none" stroke="#000000" d="M517,-255.0265C517,-280.5093 517,-324 517,-324 517,-324 852.2165,-324 852.2165,-324"/>
<polygon fill="#000000" stroke="#000000" points="852.2166,-327.5001 862.2165,-324 852.2165,-320.5001 852.2166,-327.5001"/>
</g>
<!-- ConfirmDialog  -->
<g id="node12" class="node">
<title>ConfirmDialog </title>
<polygon fill="#fb8072" stroke="#000000" points="129.5414,-331 24.4586,-331 24.4586,-295 129.5414,-295 129.5414,-331"/>
<text text-anchor="middle" x="77" y="-308.8" font-family="Times,serif" font-size="14.00" fill="#000000">ConfirmDialog </text>
</g>
<!-- ConfirmDialogModule&#45;&gt;ConfirmDialog  -->
<g id="edge16" class="edge">
<title>ConfirmDialogModule&#45;&gt;ConfirmDialog </title>
<path fill="none" stroke="#000000" stroke-dasharray="5,2" d="M444.3429,-237C319.3706,-237 77,-237 77,-237 77,-237 77,-284.9891 77,-284.9891"/>
<polygon fill="#000000" stroke="#000000" points="73.5001,-284.989 77,-294.9891 80.5001,-284.9891 73.5001,-284.989"/>
</g>
<!-- SharedModule -->
<g id="node7" class="node">
<title>SharedModule</title>
<polygon fill="#8dd3c7" stroke="#000000" points="706.4231,-255 703.4231,-259 682.4231,-259 679.4231,-255 607.5769,-255 607.5769,-219 706.4231,-219 706.4231,-255"/>
<text text-anchor="middle" x="657" y="-232.8" font-family="Times,serif" font-size="14.00" fill="#000000">SharedModule</text>
</g>
<!-- SharedModule&#45;&gt;AppModule -->
<g id="edge7" class="edge">
<title>SharedModule&#45;&gt;AppModule</title>
<path fill="none" stroke="#000000" d="M673.4037,-255.1532C673.4037,-278.7566 673.4037,-317 673.4037,-317 673.4037,-317 852.2407,-317 852.2407,-317"/>
<polygon fill="#000000" stroke="#000000" points="852.2408,-320.5001 862.2407,-317 852.2407,-313.5001 852.2408,-320.5001"/>
</g>
<!-- Header  -->
<g id="node14" class="node">
<title>Header </title>
<polygon fill="#fb8072" stroke="#000000" points="229.9111,-331 170.0889,-331 170.0889,-295 229.9111,-295 229.9111,-331"/>
<text text-anchor="middle" x="200" y="-308.8" font-family="Times,serif" font-size="14.00" fill="#000000">Header </text>
</g>
<!-- SharedModule&#45;&gt;Header  -->
<g id="edge20" class="edge">
<title>SharedModule&#45;&gt;Header </title>
<path fill="none" stroke="#000000" stroke-dasharray="5,2" d="M640.5963,-255.1097C640.5963,-264.897 640.5963,-275 640.5963,-275 640.5963,-275 200,-275 200,-275 200,-275 200,-284.8903 200,-284.8903"/>
<polygon fill="#000000" stroke="#000000" points="196.5001,-284.8903 200,-294.8903 203.5001,-284.8904 196.5001,-284.8903"/>
</g>
<!-- OrderlistModule&#45;&gt;AppModule -->
<g id="edge10" class="edge">
<title>OrderlistModule&#45;&gt;AppModule</title>
<path fill="none" stroke="#000000" d="M797.2181,-255.0449C797.2181,-276.6623 797.2181,-310 797.2181,-310 797.2181,-310 852.1034,-310 852.1034,-310"/>
<polygon fill="#000000" stroke="#000000" points="852.1035,-313.5001 862.1034,-310 852.1034,-306.5001 852.1035,-313.5001"/>
</g>
<!-- OrderlistComponent  -->
<g id="node13" class="node">
<title>OrderlistComponent </title>
<polygon fill="#fb8072" stroke="#000000" points="404.0918,-331 269.9082,-331 269.9082,-295 404.0918,-295 404.0918,-331"/>
<text text-anchor="middle" x="337" y="-308.8" font-family="Times,serif" font-size="14.00" fill="#000000">OrderlistComponent </text>
</g>
<!-- OrderlistModule&#45;&gt;OrderlistComponent  -->
<g id="edge19" class="edge">
<title>OrderlistModule&#45;&gt;OrderlistComponent </title>
<path fill="none" stroke="#000000" stroke-dasharray="5,2" d="M760.7819,-255.0348C760.7819,-274.5762 760.7819,-303 760.7819,-303 760.7819,-303 414.1495,-303 414.1495,-303"/>
<polygon fill="#000000" stroke="#000000" points="414.1495,-299.5001 404.1495,-303 414.1495,-306.5001 414.1495,-299.5001"/>
</g>
<!-- AppComponent  -->
<g id="node10" class="node">
<title>AppComponent </title>
<polygon fill="#80b1d3" stroke="#000000" points="958.439,-399 849.561,-399 849.561,-363 958.439,-363 958.439,-399"/>
<text text-anchor="middle" x="904" y="-376.8" font-family="Times,serif" font-size="14.00" fill="#000000">AppComponent </text>
</g>
<!-- AppModule&#45;&gt;AppComponent  -->
<g id="edge11" class="edge">
<title>AppModule&#45;&gt;AppComponent </title>
<path fill="none" stroke="#000000" stroke-dasharray="1,5" d="M904,-331.2228C904,-331.2228 904,-352.7269 904,-352.7269"/>
<polygon fill="#000000" stroke="#000000" points="900.5001,-352.7269 904,-362.7269 907.5001,-352.727 900.5001,-352.7269"/>
</g>
</g>
</svg>
